<?xml version="1.0" encoding="UTF-8" standalone="no"?>
<svg width="300" height="400" viewBox="0 0 300 400" xmlns="http://www.w3.org/2000/svg">
  <!-- Fundo -->
  <rect x="0" y="0" width="300" height="400" fill="#f8f8f8"/>
  
  <!-- Cabeça -->
  <ellipse cx="150" cy="100" rx="60" ry="70" fill="#f5d0a9"/>
  
  <!-- Cabelo -->
  <path d="M150 40 Q 100 50 100 100 Q 100 120 110 130 L 190 130 Q 200 120 200 100 Q 200 50 150 40" fill="#4a2c0f"/>
  
  <!-- Olhos -->
  <ellipse cx="125" cy="90" rx="8" ry="6" fill="white"/>
  <ellipse cx="175" cy="90" rx="8" ry="6" fill="white"/>
  <circle cx="125" cy="90" r="4" fill="#2c1e0f"/>
  <circle cx="175" cy="90" r="4" fill="#2c1e0f"/>
  
  <!-- Sobrancelhas -->
  <path d="M115 80 Q 125 75 135 80" stroke="#4a2c0f" stroke-width="2" fill="transparent"/>
  <path d="M165 80 Q 175 75 185 80" stroke="#4a2c0f" stroke-width="2" fill="transparent"/>
  
  <!-- Nariz -->
  <path d="M150 95 Q 155 110 150 115" stroke="#d4a985" stroke-width="2" fill="transparent"/>
  
  <!-- Boca -->
  <path d="M135 125 Q 150 135 165 125" stroke="#c94f7c" stroke-width="2" fill="transparent"/>
  
  <!-- Jaleco -->
  <path d="M90 150 L 90 350 L 210 350 L 210 150 Z" fill="white"/>
  <path d="M150 150 L 150 350" stroke="#f0f0f0" stroke-width="2"/>
  <path d="M90 180 L 210 180" stroke="#f0f0f0" stroke-width="2"/>
  
  <!-- Crachá -->
  <rect x="160" y="190" width="30" height="40" fill="#4CAF50"/>
  <text x="175" y="215" font-family="Arial" font-size="10" text-anchor="middle" fill="white">Dr.</text>
  
  <!-- Pescoço -->
  <path d="M130 140 L 130 160 L 170 160 L 170 140 Z" fill="#f5d0a9"/>
  
  <!-- Abdômen definido -->
  <path d="M120 220 L 180 220 L 180 320 L 120 320 Z" fill="white"/>
  <path d="M150 220 L 150 320" stroke="#f0f0f0" stroke-width="1"/>
  <path d="M120 245 L 180 245" stroke="#f0f0f0" stroke-width="1"/>
  <path d="M120 270 L 180 270" stroke="#f0f0f0" stroke-width="1"/>
  <path d="M120 295 L 180 295" stroke="#f0f0f0" stroke-width="1"/>
  
  <!-- Braços -->
  <path d="M90 150 L 70 250 L 90 250 Z" fill="white"/>
  <path d="M210 150 L 230 250 L 210 250 Z" fill="white"/>
  
  <!-- Estetoscópio -->
  <path d="M130 180 Q 120 200 130 220" stroke="#333" stroke-width="2" fill="transparent"/>
  <circle cx="130" cy="220" r="5" fill="#333"/>
  
  <!-- Nome -->
  <text x="150" y="380" font-family="Arial" font-size="16" font-weight="bold" text-anchor="middle" fill="#333">Dr. Rafael Monteiro</text>
</svg>